<svg width="138" height="23" viewBox="0 0 138 23" fill="none" xmlns="http://www.w3.org/2000/svg">
<path d="M9.29 11.2L17.36 22H12.59L5.09 12.16V22H0.95V0.999999H5.09V10.27L12.29 0.999999H17.06L9.29 11.2ZM30.6594 20.14C29.1394 21.66 27.2594 22.42 25.0194 22.42C22.7794 22.42 20.8994 21.66 19.3794 20.14C17.8594 18.62 17.0994 16.74 17.0994 14.5C17.0994 12.28 17.8594 10.41 19.3794 8.89C20.9194 7.35 22.7994 6.58 25.0194 6.58C27.2394 6.58 29.1194 7.35 30.6594 8.89C32.1994 10.43 32.9694 12.3 32.9694 14.5C32.9694 16.72 32.1994 18.6 30.6594 20.14ZM22.1094 17.47C22.8894 18.25 23.8594 18.64 25.0194 18.64C26.1794 18.64 27.1494 18.25 27.9294 17.47C28.7094 16.69 29.0994 15.7 29.0994 14.5C29.0994 13.3 28.7094 12.31 27.9294 11.53C27.1494 10.75 26.1794 10.36 25.0194 10.36C23.8594 10.36 22.8894 10.75 22.1094 11.53C21.3494 12.33 20.9694 13.32 20.9694 14.5C20.9694 15.68 21.3494 16.67 22.1094 17.47ZM39.5619 22H35.6919V0.0999994H39.5619V22ZM55.884 20.14C54.364 21.66 52.484 22.42 50.244 22.42C48.004 22.42 46.124 21.66 44.604 20.14C43.084 18.62 42.324 16.74 42.324 14.5C42.324 12.28 43.084 10.41 44.604 8.89C46.144 7.35 48.024 6.58 50.244 6.58C52.464 6.58 54.344 7.35 55.884 8.89C57.424 10.43 58.194 12.3 58.194 14.5C58.194 16.72 57.424 18.6 55.884 20.14ZM47.334 17.47C48.114 18.25 49.084 18.64 50.244 18.64C51.404 18.64 52.374 18.25 53.154 17.47C53.934 16.69 54.324 15.7 54.324 14.5C54.324 13.3 53.934 12.31 53.154 11.53C52.374 10.75 51.404 10.36 50.244 10.36C49.084 10.36 48.114 10.75 47.334 11.53C46.574 12.33 46.194 13.32 46.194 14.5C46.194 15.68 46.574 16.67 47.334 17.47ZM81.8138 11.11C83.6538 12.17 84.5738 13.77 84.5738 15.91C84.5738 17.69 83.9438 19.15 82.6838 20.29C81.4238 21.43 79.8738 22 78.0338 22H69.1238V0.999999H77.4038C79.1838 0.999999 80.6938 1.56 81.9338 2.68C83.1738 3.8 83.7938 5.21 83.7938 6.91C83.7938 8.65 83.1338 10.05 81.8138 11.11ZM77.4038 4.87H73.2638V9.49H77.4038C78.0438 9.49 78.5738 9.27 78.9938 8.83C79.4338 8.39 79.6538 7.84 79.6538 7.18C79.6538 6.52 79.4438 5.97 79.0238 5.53C78.6038 5.09 78.0638 4.87 77.4038 4.87ZM73.2638 18.13H78.0338C78.7338 18.13 79.3138 17.9 79.7738 17.44C80.2338 16.96 80.4638 16.36 80.4638 15.64C80.4638 14.94 80.2338 14.36 79.7738 13.9C79.3138 13.42 78.7338 13.18 78.0338 13.18H73.2638V18.13ZM98.7423 8.77V7H102.612V22H98.7423V20.23C97.5823 21.69 95.9523 22.42 93.8523 22.42C91.8523 22.42 90.1323 21.66 88.6923 20.14C87.2723 18.6 86.5623 16.72 86.5623 14.5C86.5623 12.3 87.2723 10.43 88.6923 8.89C90.1323 7.35 91.8523 6.58 93.8523 6.58C95.9523 6.58 97.5823 7.31 98.7423 8.77ZM91.6023 17.56C92.3823 18.34 93.3723 18.73 94.5723 18.73C95.7723 18.73 96.7623 18.34 97.5423 17.56C98.3423 16.76 98.7423 15.74 98.7423 14.5C98.7423 13.26 98.3423 12.25 97.5423 11.47C96.7623 10.67 95.7723 10.27 94.5723 10.27C93.3723 10.27 92.3823 10.67 91.6023 11.47C90.8223 12.25 90.4323 13.26 90.4323 14.5C90.4323 15.74 90.8223 16.76 91.6023 17.56ZM114.462 6.58C116.122 6.58 117.472 7.13 118.512 8.23C119.592 9.35 120.132 10.87 120.132 12.79V22H116.262V13.27C116.262 12.29 115.992 11.53 115.452 10.99C114.932 10.45 114.212 10.18 113.292 10.18C112.272 10.18 111.462 10.5 110.862 11.14C110.282 11.76 109.992 12.68 109.992 13.9V22H106.122V7H109.992V8.68C110.912 7.28 112.402 6.58 114.462 6.58ZM131.056 14.41L137.266 22H132.766L127.306 15.19V22H123.436V0.999999H127.306V13.6L132.466 7H137.086L131.056 14.41Z" fill="white"/>
<path d="M65.7165 19.84C65.7165 20.54 65.4665 21.14 64.9665 21.64C64.4665 22.14 63.8665 22.39 63.1665 22.39C62.4665 22.39 61.8665 22.14 61.3665 21.64C60.8665 21.14 60.6165 20.54 60.6165 19.84C60.6165 19.14 60.8665 18.54 61.3665 18.04C61.8665 17.54 62.4665 17.29 63.1665 17.29C63.8665 17.29 64.4665 17.54 64.9665 18.04C65.4665 18.54 65.7165 19.14 65.7165 19.84Z" fill="#EA624A"/>
</svg>
